# xmcd
#
# Track frame offsets: 
#        150
#        12596
#        32440
#        45936
#        64036
#        84659
#        95109
#        109672
#        123609
#        140351
#        155401
#
# Disc length: 2280 seconds
#
# Revision: 0
# Processed by: cddbd v1.5.2PL0 Copyright (c) Steve Scherf et al.
# Submitted via: ExactAudioCopy v1.3
#
DISCID=8b08e60b
DTITLE=Jack J Hutchinson - Paint no Fiction
DYEAR=2017
DGENRE=Blues
TTITLE0=Deal With The Devil
TTITLE1=Written In Stone
TTITLE2=Hip Slickin'
TTITLE3=Hold Me Close
TTITLE4=Cut The Noose
TTITLE5=Set Your Heart For The Sun
TTITLE6=Rattlesnake Woman
TTITLE7=Skin and Bones
TTITLE8=I Got Your Number
TTITLE9=Send Me A Signal
TTITLE10=Hard Right In My Dreams
EXTD=
EXTT0=
EXTT1=
EXTT2=
EXTT3=
EXTT4=
EXTT5=
EXTT6=
EXTT7=
EXTT8=
EXTT9=
EXTT10=
PLAYORDER=
